<?xml version="1.0" encoding="utf-8"?>
<!-- Generator: Adobe Illustrator 22.0.1, SVG Export Plug-In . SVG Version: 6.00 Build 0)  -->
<svg version="1.1" id="Layer_1" xmlns="http://www.w3.org/2000/svg" xmlns:xlink="http://www.w3.org/1999/xlink" x="0px" y="0px"
	 viewBox="0 0 408 408" style="enable-background:new 0 0 408 408;" xml:space="preserve">
<style type="text/css">
	.st0{fill:#FFFFFF;}
	.st1{fill:#2D3F51;}
	.st2{fill:#FFE66D;}
	.st3{fill:#FF6B6B;}
	.st4{fill:#4ECDC4;}
</style>
<path class="st0" d="M240,69.8l-15.9-29.1c-8.7-15.9-31.4-15.9-40.1,0l-16,29.1l-28.3-17.2c-15.4-9.4-35.2,2-34.7,20.1l0.8,33h-0.1
	L72.6,105c-18.1-0.4-29.4,19.3-20.1,34.7L69.8,168l-29.1,15.9c-15.9,8.7-15.9,31.4,0,40.1l29.1,16l-17.2,28.3
	c-9.4,15.4,2,35.2,20.1,34.7l33-0.8v0.1l-0.8,33.2c-0.4,18.1,19.3,29.4,34.7,20.1l28.3-17.2v-0.3l0.1,0.1l15.9,29.1
	c8.7,15.9,31.4,15.9,40.1,0l15.9-29.1l28.4,17.2c15.4,9.4,35.2-2,34.7-20.1l-0.7-33l33.2,0.8c18.1,0.4,29.4-19.3,20.1-34.7
	L338.2,240l29.1-15.9c15.9-8.7,15.9-31.4,0-40.1l-29-16l0,0h-0.1l17.2-28.3c9.4-15.4-2-35.2-20.1-34.7l-33,0.8v-0.1l0.8-33.2
	c0.4-18.1-19.3-29.4-34.7-20.1L240,69.8"/>
<polygon class="st1" points="316.3,204 300.6,178.1 301.3,147.8 274.7,133.3 260.2,106.7 229.9,107.4 204,91.7 178.1,107.4 
	147.8,106.7 133.3,133.3 106.7,147.8 107.4,178.1 91.7,204 107.4,229.9 106.7,260.2 133.3,274.7 147.8,301.3 178.1,300.6 204,316.3 
	229.9,300.6 260.2,301.3 274.7,274.7 301.3,260.2 300.6,229.9 "/>
<g>
	<polygon class="st2" points="301.3,147.8 300.6,178.1 316.4,204 338.3,168 	"/>
	<polygon class="st2" points="229.9,300.6 204,316.3 240,338.2 260.2,301.3 	"/>
	<polygon class="st2" points="168,69.8 147.8,106.7 178.1,107.4 204,91.6 	"/>
	<polygon class="st2" points="91.7,204 69.8,240 106.7,260.2 107.4,229.9 	"/>
	<polygon class="st2" points="240,69.8 204,91.7 229.9,107.5 260.2,106.8 	"/>
	<polygon class="st2" points="106.7,147.8 69.8,168 91.7,204 107.5,178.1 	"/>
	<polygon class="st2" points="316.3,204 300.5,229.9 301.2,260.2 338.1,240 	"/>
	<polygon class="st2" points="178.1,300.6 147.8,301.3 168,338.2 204,316.3 	"/>
	<polygon class="st2" points="301.3,260.2 274.7,274.7 260.2,301.3 302.3,302.3 	"/>
	<polygon class="st2" points="105.7,105.7 106.7,147.8 133.3,133.3 147.8,106.7 	"/>
	<polygon class="st2" points="260.2,106.7 274.7,133.3 301.3,147.8 302.3,105.7 	"/>
	<polygon class="st2" points="133.3,274.7 106.7,260.2 105.7,302.3 147.8,301.3 	"/>
</g>
<g>
	<g>
		<path class="st3" d="M240,69.8l-15.9-29.1c-8.7-15.9-31.4-15.9-40.1,0l-16,29.1l36,21.9L240,69.8z"/>
	</g>
	<g>
		<path class="st4" d="M69.8,168l-29.1,15.9c-15.9,8.7-15.9,31.4,0,40.1l29.1,16l21.9-36L69.8,168z"/>
	</g>
	<g>
		<path class="st3" d="M168,338.2l15.9,29.1c8.7,15.9,31.4,15.9,40.1,0l15.9-29.1l-36-21.9L168,338.2z"/>
	</g>
	<g>
		<path class="st4" d="M338.2,240l29.1-15.9c15.9-8.7,15.9-31.4,0-40.1l-29.1-16l-21.9,36L338.2,240z"/>
	</g>
	<g>
		<path class="st4" d="M240,338.2l28.3,17.2c15.4,9.4,35.2-2,34.7-20.1l-0.8-33.2l-42.1-1L240,338.2z"/>
	</g>
	<g>
		<path class="st4" d="M168,69.8l-28.3-17.2c-15.4-9.4-35.2,2-34.7,20.1l0.8,33.2l42.1,1L168,69.8z"/>
	</g>
	<g>
		<path class="st3" d="M69.8,240l-17.2,28.3c-9.4,15.4,2,35.2,20.1,34.7l33.2-0.8l1-42.1L69.8,240z"/>
	</g>
	<g>
		<path class="st3" d="M338.2,168l17.2-28.3c9.4-15.4-2-35.2-20.1-34.7l-33.2,0.8l-1,42.1L338.2,168z"/>
	</g>
	<g>
		<path class="st4" d="M302.3,105.7l0.8-33.2c0.4-18.1-19.3-29.4-34.7-20.1L240,69.8l20.2,36.9L302.3,105.7z"/>
	</g>
	<g>
		<path class="st3" d="M105.7,105.7L72.6,105c-18.1-0.4-29.4,19.3-20.1,34.7L69.8,168l36.9-20.2L105.7,105.7z"/>
	</g>
	<g>
		<path class="st4" d="M105.7,302.3l-0.8,33.2c-0.4,18.1,19.3,29.4,34.7,20.1l28.3-17.2l-20.2-36.9L105.7,302.3z"/>
	</g>
	<g>
		<path class="st3" d="M338.2,240l-36.9,20.2l1,42.1l33.2,0.8c18.1,0.4,29.4-19.3,20.1-34.7L338.2,240z"/>
	</g>
</g>
<path class="st0" d="M277.7,152.9c-5.1-2.6-122.9,6.1-122.9,6.1s-22.3,10.2-9.8,12.7c6.4,1.3,32.5-1.4,56.9-4.4
	c-1.4,5.9-3.8,14.8-6.6,24.8c-42.1,31-45.5,55.8-15.7,43.6c-10.8-9.4-2.5-21.7,13-33.8c-7.8,27.4-17.6,58.7-20.9,62.8l3.3,1.7
	c0,0,8-6.8,9-6.5c0,0,13.6-39.3,24.8-69.2C240,171.1,280.5,154.3,277.7,152.9z M212.8,180.3c2.3-6,4.4-11.2,6.2-15.2
	c16.8-2.2,29.7-4.1,29.7-4.1C235.1,167.4,223.2,173.9,212.8,180.3z"/>
</svg>
